<?xml version="1.0" encoding="UTF-8"?><svg id="Livello_1" xmlns="http://www.w3.org/2000/svg" viewBox="0 0 280.08 85.33"><polygon points="0 27.69 16.44 27.69 16.44 63.83 .23 63.83 .23 83.75 41.65 83.75 41.65 63.83 25.44 63.83 25.44 27.69 41.76 27.69 41.76 1.58 0 1.58 0 27.69"/><path d="M65.46,31.13c4.76-3.26,12.14-4.9,22.12-4.9,5.4,0,10.09.58,14.07,1.75,3.98,1.16,7.54,3.06,10.69,5.68l5.85-18.46c-2.63-4.43-6.34-8.07-11.14-10.92-4.8-2.85-11-4.28-18.58-4.28s-14.05,1.52-19.87,4.56c-5.82,3.04-10.38,7.79-13.68,14.24-3.3,6.46-4.95,14.79-4.95,24.99,0,9.61,1.52,17.47,4.56,23.58,3.04,6.12,7.32,10.64,12.83,13.57,5.52,2.93,12.06,4.39,19.64,4.39s14.18-1.28,19.14-3.83,8.7-5.89,11.26-10.02l-4.39-14.07c-3.15,2.48-6.85,4.39-11.09,5.74-4.24,1.35-9.17,2.03-14.8,2.03-9.76,0-17-1.65-21.73-4.95-4.73-3.3-7.09-8.22-7.09-14.75s2.38-11.09,7.15-14.35Z"/><path d="M186.59,10.02c-3.26-3.45-7.13-5.98-11.6-7.6-4.47-1.61-9.33-2.42-14.58-2.42-6.98,0-13.25,1.48-18.8,4.45-5.55,2.97-9.91,7.58-13.06,13.85-3.15,6.27-4.73,14.39-4.73,24.37s1.58,18.01,4.73,24.32c3.15,6.3,7.5,10.94,13.06,13.9,5.55,2.96,11.82,4.45,18.8,4.45s13.23-1.48,18.74-4.45,9.89-7.6,13.12-13.9c3.23-6.3,4.84-14.41,4.84-24.32,0-7.5-.94-13.96-2.81-19.36-1.88-5.4-4.45-9.83-7.71-13.28ZM186.03,56.29c-2.07,2.93-5.22,5.16-9.46,6.7-4.24,1.54-9.63,2.31-16.15,2.31s-11.8-.77-16.04-2.31c-4.24-1.54-7.41-3.77-9.51-6.7-2.1-2.93-3.15-6.45-3.15-10.58s1.05-7.65,3.15-10.58c2.1-2.93,5.27-5.14,9.51-6.64,4.24-1.5,9.59-2.25,16.04-2.25s11.91.75,16.15,2.25c4.24,1.5,7.39,3.71,9.46,6.64,2.06,2.93,3.1,6.46,3.1,10.58s-1.03,7.65-3.1,10.58Z"/><polygon points="271.07 1.58 271.07 60.42 230.89 1.58 209.72 1.58 209.72 83.75 218.73 83.75 218.73 24.24 259.82 83.75 280.08 83.75 280.08 1.58 271.07 1.58"/></svg>